<svg width="1007" height="156" viewBox="0 0 1007 156" fill="none" xmlns="http://www.w3.org/2000/svg">
<g clip-path="url(#clip0_60_402)">
<mask id="path-3-inside-1_60_402" fill="white">
<path d="M0 1.86981H23.7113V25.5812H0V1.86981Z"/>
</mask>
<path d="M0 1.86981H23.7113V25.5812H0V1.86981Z" fill="#3B82F6"/>
<path d="M0 1.86981V1.35435H-0.515464V1.86981H0ZM23.7113 1.86981H24.2268V1.35435H23.7113V1.86981ZM0 1.86981V2.38528H23.7113V1.86981V1.35435H0V1.86981ZM23.7113 1.86981H23.1959V25.5812H23.7113H24.2268V1.86981H23.7113ZM0 25.5812H0.515464V1.86981H0H-0.515464V25.5812H0Z" fill="#E8EAEE" mask="url(#path-3-inside-1_60_402)"/>
<mask id="path-5-inside-2_60_402" fill="white">
<path d="M23.7113 1.86969H47.4226V25.581H23.7113V1.86969Z"/>
</mask>
<path d="M23.7113 1.86969H47.4226V25.581H23.7113V1.86969Z" fill="#60A5FA"/>
<path d="M47.4226 1.86969H47.9381V1.35423H47.4226V1.86969ZM23.7113 1.86969V2.38515H47.4226V1.86969V1.35423H23.7113V1.86969ZM47.4226 1.86969H46.9072V25.581H47.4226H47.9381V1.86969H47.4226Z" fill="#E8EAEE" mask="url(#path-5-inside-2_60_402)"/>
<mask id="path-7-inside-3_60_402" fill="white">
<path d="M47.4227 1.86969H71.1341V25.581H47.4227V1.86969Z"/>
</mask>
<path d="M47.4227 1.86969H71.1341V25.581H47.4227V1.86969Z" fill="#1D4ED8"/>
<path d="M71.1341 1.86969H71.6495V1.35423H71.1341V1.86969ZM47.4227 1.86969V2.38515H71.1341V1.86969V1.35423H47.4227V1.86969ZM71.1341 1.86969H70.6186V25.581H71.1341H71.6495V1.86969H71.1341Z" fill="#E8EAEE" mask="url(#path-7-inside-3_60_402)"/>
<mask id="path-9-inside-4_60_402" fill="white">
<path d="M71.134 1.86969H94.8454V25.581H71.134V1.86969Z"/>
</mask>
<path d="M94.8454 1.86969H95.3608V1.35423H94.8454V1.86969ZM71.134 1.86969V2.38515H94.8454V1.86969V1.35423H71.134V1.86969ZM94.8454 1.86969H94.3299V25.581H94.8454H95.3608V1.86969H94.8454Z" fill="#E8EAEE" mask="url(#path-9-inside-4_60_402)"/>
<mask id="path-11-inside-5_60_402" fill="white">
<path d="M0 25.5811H23.7113V49.2924H0V25.5811Z"/>
</mask>
<path d="M0 25.5811H23.7113V49.2924H0V25.5811Z" fill="#1D4ED8"/>
<path d="M0 25.5811V25.0656H-0.515464V25.5811H0ZM23.7113 25.5811H24.2268V25.0656H23.7113V25.5811ZM0 25.5811V26.0965H23.7113V25.5811V25.0656H0V25.5811ZM23.7113 25.5811H23.1959V49.2924H23.7113H24.2268V25.5811H23.7113ZM0 49.2924H0.515464V25.5811H0H-0.515464V49.2924H0Z" fill="#E8EAEE" mask="url(#path-11-inside-5_60_402)"/>
<mask id="path-13-inside-6_60_402" fill="white">
<path d="M23.7113 25.5811H47.4226V49.2924H23.7113V25.5811Z"/>
</mask>
<path d="M47.4226 25.5811H47.9381V25.0656H47.4226V25.5811ZM23.7113 25.5811V26.0965H47.4226V25.5811V25.0656H23.7113V25.5811ZM47.4226 25.5811H46.9072V49.2924H47.4226H47.9381V25.5811H47.4226Z" fill="#E8EAEE" mask="url(#path-13-inside-6_60_402)"/>
<mask id="path-15-inside-7_60_402" fill="white">
<path d="M47.4227 25.5811H71.1341V49.2924H47.4227V25.5811Z"/>
</mask>
<path d="M71.1341 25.5811H71.6495V25.0656H71.1341V25.5811ZM47.4227 25.5811V26.0965H71.1341V25.5811V25.0656H47.4227V25.5811ZM71.1341 25.5811H70.6186V49.2924H71.1341H71.6495V25.5811H71.1341Z" fill="#E8EAEE" mask="url(#path-15-inside-7_60_402)"/>
<mask id="path-17-inside-8_60_402" fill="white">
<path d="M71.134 25.5811H94.8454V49.2924H71.134V25.5811Z"/>
</mask>
<path d="M71.134 25.5811H94.8454V49.2924H71.134V25.5811Z" fill="#3B82F6"/>
<path d="M94.8454 25.5811H95.3608V25.0656H94.8454V25.5811ZM71.134 25.5811V26.0965H94.8454V25.5811V25.0656H71.134V25.5811ZM94.8454 25.5811H94.3299V49.2924H94.8454H95.3608V25.5811H94.8454Z" fill="#E8EAEE" mask="url(#path-17-inside-8_60_402)"/>
<mask id="path-19-inside-9_60_402" fill="white">
<path d="M0 49.2924H23.7113V73.0037H0V49.2924Z"/>
</mask>
<path d="M0 49.2924H23.7113V73.0037H0V49.2924Z" fill="#3B82F6"/>
<path d="M0 49.2924V48.7769H-0.515464V49.2924H0ZM23.7113 49.2924H24.2268V48.7769H23.7113V49.2924ZM0 49.2924V49.8078H23.7113V49.2924V48.7769H0V49.2924ZM23.7113 49.2924H23.1959V73.0037H23.7113H24.2268V49.2924H23.7113ZM0 73.0037H0.515464V49.2924H0H-0.515464V73.0037H0Z" fill="#E8EAEE" mask="url(#path-19-inside-9_60_402)"/>
<mask id="path-21-inside-10_60_402" fill="white">
<path d="M23.7113 49.2924H47.4226V73.0037H23.7113V49.2924Z"/>
</mask>
<path d="M47.4226 49.2924H47.9381V48.7769H47.4226V49.2924ZM23.7113 49.2924V49.8078H47.4226V49.2924V48.7769H23.7113V49.2924ZM47.4226 49.2924H46.9072V73.0037H47.4226H47.9381V49.2924H47.4226Z" fill="#E8EAEE" mask="url(#path-21-inside-10_60_402)"/>
<mask id="path-23-inside-11_60_402" fill="white">
<path d="M47.4227 49.2924H71.1341V73.0037H47.4227V49.2924Z"/>
</mask>
<path d="M71.1341 49.2924H71.6495V48.7769H71.1341V49.2924ZM47.4227 49.2924V49.8078H71.1341V49.2924V48.7769H47.4227V49.2924ZM71.1341 49.2924H70.6186V73.0037H71.1341H71.6495V49.2924H71.1341Z" fill="#E8EAEE" mask="url(#path-23-inside-11_60_402)"/>
<mask id="path-25-inside-12_60_402" fill="white">
<path d="M71.134 49.2924H94.8454V73.0037H71.134V49.2924Z"/>
</mask>
<path d="M71.134 49.2924H94.8454V73.0037H71.134V49.2924Z" fill="#60A5FA"/>
<path d="M94.8454 49.2924H95.3608V48.7769H94.8454V49.2924ZM71.134 49.2924V49.8078H94.8454V49.2924V48.7769H71.134V49.2924ZM94.8454 49.2924H94.3299V73.0037H94.8454H95.3608V49.2924H94.8454Z" fill="#E8EAEE" mask="url(#path-25-inside-12_60_402)"/>
<mask id="path-27-inside-13_60_402" fill="white">
<path d="M0 73.0037H23.7113V96.715H0V73.0037Z"/>
</mask>
<path d="M0 73.0037H23.7113V96.715H0V73.0037Z" fill="#60A5FA"/>
<path d="M0 73.0037V72.4882H-0.515464V73.0037H0ZM23.7113 73.0037H24.2268V72.4882H23.7113V73.0037ZM0 73.0037V73.5191H23.7113V73.0037V72.4882H0V73.0037ZM23.7113 73.0037H23.1959V96.715H23.7113H24.2268V73.0037H23.7113ZM0 96.715H0.515464V73.0037H0H-0.515464V96.715H0Z" fill="#E8EAEE" mask="url(#path-27-inside-13_60_402)"/>
<mask id="path-29-inside-14_60_402" fill="white">
<path d="M23.7113 73.0037H47.4226V96.715H23.7113V73.0037Z"/>
</mask>
<path d="M23.7113 73.0037H47.4226V96.715H23.7113V73.0037Z" fill="#1D4ED8"/>
<path d="M47.4226 73.0037H47.9381V72.4882H47.4226V73.0037ZM23.7113 73.0037V73.5191H47.4226V73.0037V72.4882H23.7113V73.0037ZM47.4226 73.0037H46.9072V96.715H47.4226H47.9381V73.0037H47.4226Z" fill="#E8EAEE" mask="url(#path-29-inside-14_60_402)"/>
<mask id="path-31-inside-15_60_402" fill="white">
<path d="M47.4227 73.0037H71.1341V96.715H47.4227V73.0037Z"/>
</mask>
<path d="M47.4227 73.0037H71.1341V96.715H47.4227V73.0037Z" fill="#3B82F6"/>
<path d="M71.1341 73.0037H71.6495V72.4882H71.1341V73.0037ZM47.4227 73.0037V73.5191H71.1341V73.0037V72.4882H47.4227V73.0037ZM71.1341 73.0037H70.6186V96.715H71.1341H71.6495V73.0037H71.1341Z" fill="#E8EAEE" mask="url(#path-31-inside-15_60_402)"/>
<mask id="path-33-inside-16_60_402" fill="white">
<path d="M71.134 73.0037H94.8454V96.715H71.134V73.0037Z"/>
</mask>
<path d="M94.8454 73.0037H95.3608V72.4882H94.8454V73.0037ZM94.8454 96.715V97.2305H95.3608V96.715H94.8454ZM71.134 73.0037V73.5191H94.8454V73.0037V72.4882H71.134V73.0037ZM94.8454 73.0037H94.3299V96.715H94.8454H95.3608V73.0037H94.8454ZM94.8454 96.715V96.1995H71.134V96.715V97.2305H94.8454V96.715Z" fill="#E8EAEE" mask="url(#path-33-inside-16_60_402)"/>
<rect x="0.257732" y="96.9728" width="23.1959" height="23.1959" fill="#3B82F6" stroke="#E8EAEE" stroke-width="0.515464"/>
<mask id="path-36-inside-17_60_402" fill="white">
<path d="M23.7113 96.7151H47.4226V120.426H23.7113V96.7151Z"/>
</mask>
<path d="M47.4226 96.7151H47.9426V96.1996H47.4226V96.7151ZM47.4226 120.426V120.942H47.9426V120.426H47.4226ZM23.7113 96.7151V97.2306H47.4226V96.7151V96.1996H23.7113V96.7151ZM47.4226 96.7151H46.9026V120.426H47.4226H47.9426V96.7151H47.4226ZM47.4226 120.426V119.911H23.7113V120.426V120.942H47.4226V120.426Z" fill="#E8EAEE" mask="url(#path-36-inside-17_60_402)"/>
<mask id="path-38-inside-18_60_402" fill="white">
<path d="M47.4227 96.7151H71.1341V120.426H47.4227V96.7151Z"/>
</mask>
<path d="M71.1341 120.426V120.942H71.6495V120.426H71.1341ZM71.1341 96.7151H70.6186V120.426H71.1341H71.6495V96.7151H71.1341ZM71.1341 120.426V119.911H47.4227V120.426V120.942H71.1341V120.426Z" fill="#E8EAEE" mask="url(#path-38-inside-18_60_402)"/>
<mask id="path-40-inside-19_60_402" fill="white">
<path d="M71.134 96.7151H94.8454V120.426H71.134V96.7151Z"/>
</mask>
<path d="M94.8454 120.426V120.942H95.3608V120.426H94.8454ZM94.8454 96.7151H94.3299V120.426H94.8454H95.3608V96.7151H94.8454ZM94.8454 120.426V119.911H71.134V120.426V120.942H94.8454V120.426Z" fill="#E8EAEE" mask="url(#path-40-inside-19_60_402)"/>
</g>
<rect x="0.257732" y="2.12754" width="94.3299" height="118.041" rx="6.4433" stroke="#E8EAEE" stroke-width="0.515464"/>
<g clip-path="url(#clip1_60_402)">
<mask id="path-44-inside-20_60_402" fill="white">
<path d="M383.505 1.85681H407.216V25.5682H383.505V1.85681Z"/>
</mask>
<path d="M383.505 1.85681H407.216V25.5682H383.505V1.85681Z" fill="#1E293B"/>
<path d="M383.505 1.85681V1.34135H382.99V1.85681H383.505ZM383.505 1.85681V2.37228H407.216V1.85681V1.34135H383.505V1.85681ZM383.505 25.5682H384.021V1.85681H383.505H382.99V25.5682H383.505Z" fill="#E8EAEE" mask="url(#path-44-inside-20_60_402)"/>
<mask id="path-46-inside-21_60_402" fill="white">
<path d="M407.216 1.85669H430.928V25.568H407.216V1.85669Z"/>
</mask>
<path d="M407.216 1.85669V1.34123H406.701V1.85669H407.216ZM407.216 1.85669V2.37215H430.928V1.85669V1.34123H407.216V1.85669ZM407.216 25.568H407.732V1.85669H407.216H406.701V25.568H407.216Z" fill="#E8EAEE" mask="url(#path-46-inside-21_60_402)"/>
<mask id="path-48-inside-22_60_402" fill="white">
<path d="M430.928 1.85669H454.639V25.568H430.928V1.85669Z"/>
</mask>
<path d="M430.928 1.85669V1.34123H430.412V1.85669H430.928ZM430.928 1.85669V2.37215H454.639V1.85669V1.34123H430.928V1.85669ZM430.928 25.568H431.443V1.85669H430.928H430.412V25.568H430.928Z" fill="#E8EAEE" mask="url(#path-48-inside-22_60_402)"/>
<mask id="path-50-inside-23_60_402" fill="white">
<path d="M454.639 1.85669H478.351V25.568H454.639V1.85669Z"/>
</mask>
<path d="M454.639 1.85669H478.351V25.568H454.639V1.85669Z" fill="#1E293B"/>
<path d="M454.639 1.85669V1.34123H454.124V1.85669H454.639ZM478.351 1.85669H478.866V1.34123H478.351V1.85669ZM454.639 1.85669V2.37215H478.351V1.85669V1.34123H454.639V1.85669ZM478.351 1.85669H477.835V25.568H478.351H478.866V1.85669H478.351ZM454.639 25.568H455.155V1.85669H454.639H454.124V25.568H454.639Z" fill="#E8EAEE" mask="url(#path-50-inside-23_60_402)"/>
<mask id="path-52-inside-24_60_402" fill="white">
<path d="M383.505 25.568H407.216V49.2793H383.505V25.568Z"/>
</mask>
<path d="M383.505 25.568H407.216V49.2793H383.505V25.568Z" fill="#1E293B"/>
<path d="M383.505 25.568V25.0525H382.99V25.568H383.505ZM383.505 25.568V26.0835H407.216V25.568V25.0525H383.505V25.568ZM383.505 49.2793H384.021V25.568H383.505H382.99V49.2793H383.505Z" fill="#E8EAEE" mask="url(#path-52-inside-24_60_402)"/>
<mask id="path-54-inside-25_60_402" fill="white">
<path d="M407.216 25.568H430.928V49.2793H407.216V25.568Z"/>
</mask>
<path d="M407.216 25.568V25.0525H406.701V25.568H407.216ZM407.216 25.568V26.0835H430.928V25.568V25.0525H407.216V25.568ZM407.216 49.2793H407.732V25.568H407.216H406.701V49.2793H407.216Z" fill="#E8EAEE" mask="url(#path-54-inside-25_60_402)"/>
<mask id="path-56-inside-26_60_402" fill="white">
<path d="M430.928 25.568H454.639V49.2793H430.928V25.568Z"/>
</mask>
<path d="M430.928 25.568H454.639V49.2793H430.928V25.568Z" fill="#1E293B"/>
<path d="M430.928 25.568V25.0525H430.412V25.568H430.928ZM430.928 25.568V26.0835H454.639V25.568V25.0525H430.928V25.568ZM430.928 49.2793H431.443V25.568H430.928H430.412V49.2793H430.928Z" fill="#E8EAEE" mask="url(#path-56-inside-26_60_402)"/>
<mask id="path-58-inside-27_60_402" fill="white">
<path d="M454.639 25.568H478.351V49.2793H454.639V25.568Z"/>
</mask>
<path d="M454.639 25.568V25.0525H454.124V25.568H454.639ZM478.351 25.568H478.866V25.0525H478.351V25.568ZM454.639 25.568V26.0835H478.351V25.568V25.0525H454.639V25.568ZM478.351 25.568H477.835V49.2793H478.351H478.866V25.568H478.351ZM454.639 49.2793H455.155V25.568H454.639H454.124V49.2793H454.639Z" fill="#E8EAEE" mask="url(#path-58-inside-27_60_402)"/>
<mask id="path-60-inside-28_60_402" fill="white">
<path d="M383.505 49.2793H407.216V72.9906H383.505V49.2793Z"/>
</mask>
<path d="M383.505 49.2793H407.216V72.9906H383.505V49.2793Z" fill="#1E293B"/>
<path d="M383.505 49.2793V48.7638H382.99V49.2793H383.505ZM383.505 49.2793V49.7948H407.216V49.2793V48.7638H383.505V49.2793ZM383.505 72.9906H384.021V49.2793H383.505H382.99V72.9906H383.505Z" fill="#E8EAEE" mask="url(#path-60-inside-28_60_402)"/>
<mask id="path-62-inside-29_60_402" fill="white">
<path d="M407.216 49.2793H430.928V72.9906H407.216V49.2793Z"/>
</mask>
<path d="M407.216 49.2793H430.928V72.9906H407.216V49.2793Z" fill="#1E293B"/>
<path d="M407.216 49.2793V48.7638H406.701V49.2793H407.216ZM407.216 49.2793V49.7948H430.928V49.2793V48.7638H407.216V49.2793ZM407.216 72.9906H407.732V49.2793H407.216H406.701V72.9906H407.216Z" fill="#E8EAEE" mask="url(#path-62-inside-29_60_402)"/>
<mask id="path-64-inside-30_60_402" fill="white">
<path d="M430.928 49.2793H454.639V72.9906H430.928V49.2793Z"/>
</mask>
<path d="M430.928 49.2793V48.7638H430.412V49.2793H430.928ZM430.928 49.2793V49.7948H454.639V49.2793V48.7638H430.928V49.2793ZM430.928 72.9906H431.443V49.2793H430.928H430.412V72.9906H430.928Z" fill="#E8EAEE" mask="url(#path-64-inside-30_60_402)"/>
<mask id="path-66-inside-31_60_402" fill="white">
<path d="M454.639 49.2793H478.351V72.9906H454.639V49.2793Z"/>
</mask>
<path d="M454.639 49.2793V48.7638H454.124V49.2793H454.639ZM478.351 49.2793H478.866V48.7638H478.351V49.2793ZM454.639 49.2793V49.7948H478.351V49.2793V48.7638H454.639V49.2793ZM478.351 49.2793H477.835V72.9906H478.351H478.866V49.2793H478.351ZM454.639 72.9906H455.155V49.2793H454.639H454.124V72.9906H454.639Z" fill="#E8EAEE" mask="url(#path-66-inside-31_60_402)"/>
<mask id="path-68-inside-32_60_402" fill="white">
<path d="M383.505 72.9906H407.216V96.7019H383.505V72.9906Z"/>
</mask>
<path d="M383.505 72.9906H407.216V96.7019H383.505V72.9906Z" fill="#1E293B"/>
<path d="M383.505 72.9906V72.4751H382.99V72.9906H383.505ZM383.505 72.9906V73.5061H407.216V72.9906V72.4751H383.505V72.9906ZM383.505 96.7019H384.021V72.9906H383.505H382.99V96.7019H383.505Z" fill="#E8EAEE" mask="url(#path-68-inside-32_60_402)"/>
<mask id="path-70-inside-33_60_402" fill="white">
<path d="M407.216 72.9906H430.928V96.7019H407.216V72.9906Z"/>
</mask>
<path d="M407.216 72.9906V72.4751H406.701V72.9906H407.216ZM407.216 72.9906V73.5061H430.928V72.9906V72.4751H407.216V72.9906ZM407.216 96.7019H407.732V72.9906H407.216H406.701V96.7019H407.216Z" fill="#E8EAEE" mask="url(#path-70-inside-33_60_402)"/>
<mask id="path-72-inside-34_60_402" fill="white">
<path d="M430.928 72.9906H454.639V96.7019H430.928V72.9906Z"/>
</mask>
<path d="M430.928 72.9906H454.639V96.7019H430.928V72.9906Z" fill="#1E293B"/>
<path d="M430.928 72.9906V72.4751H430.412V72.9906H430.928ZM430.928 72.9906V73.5061H454.639V72.9906V72.4751H430.928V72.9906ZM430.928 96.7019H431.443V72.9906H430.928H430.412V96.7019H430.928Z" fill="#E8EAEE" mask="url(#path-72-inside-34_60_402)"/>
<mask id="path-74-inside-35_60_402" fill="white">
<path d="M454.639 72.9906H478.351V96.7019H454.639V72.9906Z"/>
</mask>
<path d="M454.639 72.9906V72.4751H454.124V72.9906H454.639ZM478.351 72.9906H478.866V72.4751H478.351V72.9906ZM454.639 72.9906V73.5061H478.351V72.9906V72.4751H454.639V72.9906ZM478.351 72.9906H477.835V96.7019H478.351H478.866V72.9906H478.351ZM454.639 96.7019H455.155V72.9906H454.639H454.124V96.7019H454.639Z" fill="#E8EAEE" mask="url(#path-74-inside-35_60_402)"/>
<mask id="path-76-inside-36_60_402" fill="white">
<path d="M383.505 96.7021H407.216V120.413H383.505V96.7021Z"/>
</mask>
<path d="M383.505 96.7021H407.216V120.413H383.505V96.7021Z" fill="#1E293B"/>
<path d="M383.505 96.7021V96.1867H382.99V96.7021H383.505ZM383.505 120.413H382.99V120.929H383.505V120.413ZM383.505 96.7021V97.2176H407.216V96.7021V96.1867H383.505V96.7021ZM407.216 120.413V119.898H383.505V120.413V120.929H407.216V120.413ZM383.505 120.413H384.021V96.7021H383.505H382.99V120.413H383.505Z" fill="#E8EAEE" mask="url(#path-76-inside-36_60_402)"/>
<mask id="path-78-inside-37_60_402" fill="white">
<path d="M407.216 96.7021H430.928V120.413H407.216V96.7021Z"/>
</mask>
<path d="M407.216 96.7021V96.1867H406.701V96.7021H407.216ZM407.216 120.413H406.701V120.929H407.216V120.413ZM407.216 96.7021V97.2176H430.928V96.7021V96.1867H407.216V96.7021ZM430.928 120.413V119.898H407.216V120.413V120.929H430.928V120.413ZM407.216 120.413H407.732V96.7021H407.216H406.701V120.413H407.216Z" fill="#E8EAEE" mask="url(#path-78-inside-37_60_402)"/>
<mask id="path-80-inside-38_60_402" fill="white">
<path d="M430.928 96.7021H454.639V120.413H430.928V96.7021Z"/>
</mask>
<path d="M430.928 96.7021V96.1867H430.412V96.7021H430.928ZM430.928 120.413H430.412V120.929H430.928V120.413ZM430.928 96.7021V97.2176H454.639V96.7021V96.1867H430.928V96.7021ZM454.639 120.413V119.898H430.928V120.413V120.929H454.639V120.413ZM430.928 120.413H431.443V96.7021H430.928H430.412V120.413H430.928Z" fill="#E8EAEE" mask="url(#path-80-inside-38_60_402)"/>
<rect x="454.897" y="96.9599" width="23.1959" height="23.1959" fill="#FBBF24" stroke="#E8EAEE" stroke-width="0.515464"/>
</g>
<rect x="383.763" y="2.11454" width="94.3299" height="118.041" rx="4.89691" stroke="#E8EAEE" stroke-width="0.515464"/>
<path d="M167.84 33.9079L185.354 65.9417L203.15 33.9079H224.789L198.631 77.2976L225.241 120.687H203.715L185.354 89.4445L167.162 120.687H145.467L171.908 77.2976L146.145 33.9079H167.84ZM272.581 122.382C263.881 122.382 256.367 120.574 250.039 116.959C243.749 113.305 238.909 108.145 235.519 101.478C232.129 94.774 230.434 86.8833 230.434 77.8061C230.434 68.8795 232.129 61.0453 235.519 54.3033C238.947 47.5237 243.73 42.2506 249.869 38.4841C256.009 34.68 263.222 32.7779 271.508 32.7779C276.856 32.7779 281.903 33.6442 286.649 35.3768C291.432 37.0717 295.651 39.7082 299.304 43.2864C302.996 46.8645 305.896 51.4219 308.005 56.9587C310.114 62.4577 311.169 69.0114 311.169 76.6196V82.8908H240.039V69.1055H291.564C291.527 65.1884 290.679 61.7044 289.022 58.6536C287.365 55.5651 285.048 53.1357 282.073 51.3655C279.135 49.5952 275.707 48.7101 271.79 48.7101C267.61 48.7101 263.937 49.727 260.773 51.7609C257.61 53.7572 255.143 56.3937 253.372 59.6705C251.64 62.9097 250.755 66.469 250.717 70.3485V82.3823C250.717 87.4294 251.64 91.7608 253.485 95.3766C255.331 98.9548 257.911 101.704 261.225 103.625C264.54 105.508 268.419 106.45 272.864 106.45C275.839 106.45 278.532 106.036 280.943 105.207C283.353 104.341 285.444 103.079 287.214 101.422C288.984 99.7646 290.321 97.7119 291.225 95.2636L310.321 97.4105C309.116 102.458 306.818 106.864 303.429 110.631C300.077 114.36 295.783 117.26 290.547 119.331C285.312 121.365 279.323 122.382 272.581 122.382Z" fill="#3B82F6"/>
<path d="M113 3.86981C113 2.76524 113.895 1.86981 115 1.86981H131.5C132.605 1.86981 133.5 2.76524 133.5 3.86981V20.8698C133.5 21.9744 132.605 22.8698 131.5 22.8698H115C113.895 22.8698 113 21.9744 113 20.8698V3.86981Z" fill="#FBBF24"/>
<path d="M113.25 35.8699C113.25 34.7653 114.145 33.8699 115.25 33.8699H131.25C132.355 33.8699 133.25 34.7653 133.25 35.8699V118.87C133.25 119.974 132.355 120.87 131.25 120.87H115.25C114.145 120.87 113.25 119.974 113.25 118.87V35.8699Z" fill="#3B82F6"/>
<path d="M326 3.86981C326 2.76524 326.895 1.86981 328 1.86981H344C345.105 1.86981 346 2.76524 346 3.86981V118.87C346 119.974 345.105 120.87 344 120.87H328C326.895 120.87 326 119.974 326 118.87V3.86981Z" fill="#3B82F6"/>
<path d="M522.594 122.751C517.094 122.751 512.142 121.772 507.735 119.814C503.366 117.817 499.901 114.88 497.339 111C494.816 107.121 493.554 102.337 493.554 96.6498C493.554 91.7534 494.458 87.7045 496.266 84.503C498.074 81.3015 500.541 78.7403 503.667 76.8194C506.793 74.8985 510.315 73.4484 514.232 72.4691C518.187 71.4522 522.273 70.7177 526.492 70.2657C531.577 69.7384 535.701 69.2676 538.865 68.8533C542.029 68.4013 544.326 67.7234 545.757 66.8194C547.226 65.8778 547.961 64.4277 547.961 62.4691V62.1301C547.961 57.874 546.699 54.5784 544.175 52.2432C541.652 49.908 538.017 48.7403 533.271 48.7403C528.262 48.7403 524.288 49.8326 521.351 52.0172C518.45 54.2017 516.492 56.7818 515.475 59.7573L496.379 57.0454C497.886 51.7724 500.371 47.3656 503.837 43.8251C507.302 40.247 511.539 37.5728 516.548 35.8025C521.558 33.9946 527.094 33.0907 533.158 33.0907C537.339 33.0907 541.501 33.5803 545.644 34.5596C549.787 35.5389 553.573 37.1585 557 39.4183C560.428 41.6406 563.177 44.6726 565.249 48.5144C567.358 52.3562 568.413 57.1584 568.413 62.9211V121H548.752V109.079H548.074C546.831 111.49 545.079 113.75 542.819 115.859C540.597 117.93 537.791 119.606 534.401 120.887C531.049 122.13 527.113 122.751 522.594 122.751ZM527.904 107.723C532.01 107.723 535.569 106.913 538.582 105.294C541.595 103.637 543.912 101.452 545.531 98.7402C547.189 96.0284 548.017 93.0717 548.017 89.8702V79.6442C547.377 80.1715 546.285 80.6612 544.74 81.1131C543.234 81.5651 541.539 81.9606 539.656 82.2996C537.772 82.6386 535.908 82.9399 534.062 83.2035C532.217 83.4672 530.616 83.6932 529.26 83.8815C526.209 84.2958 523.479 84.9738 521.068 85.9154C518.658 86.857 516.756 88.1753 515.362 89.8702C513.968 91.5274 513.272 93.6743 513.272 96.3109C513.272 100.077 514.646 102.921 517.396 104.842C520.145 106.763 523.648 107.723 527.904 107.723ZM610.767 122.751C605.268 122.751 600.315 121.772 595.909 119.814C591.54 117.817 588.074 114.88 585.513 111C582.99 107.121 581.728 102.337 581.728 96.6498C581.728 91.7534 582.632 87.7045 584.44 84.503C586.248 81.3015 588.715 78.7403 591.841 76.8194C594.967 74.8985 598.489 73.4484 602.406 72.4691C606.361 71.4522 610.447 70.7177 614.666 70.2657C619.75 69.7384 623.875 69.2676 627.038 68.8533C630.202 68.4013 632.5 67.7234 633.931 66.8194C635.4 65.8778 636.135 64.4277 636.135 62.4691V62.1301C636.135 57.874 634.873 54.5784 632.349 52.2432C629.826 49.908 626.191 48.7403 621.445 48.7403C616.436 48.7403 612.462 49.8326 609.524 52.0172C606.624 54.2017 604.666 56.7818 603.649 59.7573L584.553 57.0454C586.059 51.7724 588.545 47.3656 592.01 43.8251C595.475 40.247 599.713 37.5728 604.722 35.8025C609.732 33.9946 615.268 33.0907 621.332 33.0907C625.513 33.0907 629.675 33.5803 633.818 34.5596C637.961 35.5389 641.747 37.1585 645.174 39.4183C648.602 41.6406 651.351 44.6726 653.423 48.5144C655.532 52.3562 656.586 57.1584 656.586 62.9211V121H636.925V109.079H636.248C635.005 111.49 633.253 113.75 630.993 115.859C628.771 117.93 625.965 119.606 622.575 120.887C619.223 122.13 615.287 122.751 610.767 122.751ZM616.078 107.723C620.184 107.723 623.743 106.913 626.756 105.294C629.769 103.637 632.086 101.452 633.705 98.7402C635.362 96.0284 636.191 93.0717 636.191 89.8702V79.6442C635.551 80.1715 634.458 80.6612 632.914 81.1131C631.408 81.5651 629.713 81.9606 627.829 82.2996C625.946 82.6386 624.082 82.9399 622.236 83.2035C620.391 83.4672 618.79 83.6932 617.434 83.8815C614.383 84.2958 611.652 84.9738 609.242 85.9154C606.831 86.857 604.929 88.1753 603.536 89.8702C602.142 91.5274 601.445 93.6743 601.445 96.3109C601.445 100.077 602.82 102.921 605.57 104.842C608.319 106.763 611.822 107.723 616.078 107.723ZM673.969 121V34.2206H693.8V48.6839H694.704C696.286 43.6744 698.998 39.8138 702.839 37.102C706.719 34.3524 711.144 32.9777 716.116 32.9777C717.246 32.9777 718.508 33.0342 719.902 33.1472C721.333 33.2225 722.519 33.3543 723.461 33.5426V52.3562C722.595 52.0548 721.22 51.7912 719.337 51.5652C717.491 51.3015 715.702 51.1697 713.969 51.1697C710.241 51.1697 706.888 51.9795 703.913 53.5991C700.975 55.181 698.659 57.3844 696.964 60.2092C695.269 63.0341 694.421 66.2921 694.421 69.9832V121H673.969Z" fill="#1E293B"/>
<path d="M810.248 155.35C802.904 155.35 796.595 154.352 791.322 152.356C786.049 150.397 781.812 147.761 778.61 144.446C775.409 141.132 773.186 137.46 771.943 133.429L790.362 128.966C791.19 130.661 792.395 132.337 793.977 133.994C795.559 135.689 797.687 137.083 800.361 138.175C803.073 139.305 806.482 139.87 810.587 139.87C816.388 139.87 821.19 138.458 824.994 135.633C828.798 132.846 830.7 128.251 830.7 121.848V105.407H829.683C828.629 107.516 827.085 109.682 825.051 111.904C823.054 114.126 820.399 115.991 817.085 117.497C813.808 119.004 809.683 119.757 804.712 119.757C798.045 119.757 792 118.194 786.576 115.068C781.19 111.904 776.896 107.196 773.695 100.944C770.531 94.6536 768.949 86.7817 768.949 77.3279C768.949 67.7987 770.531 59.7573 773.695 53.2036C776.896 46.6123 781.209 41.6217 786.633 38.2319C792.056 34.8044 798.102 33.0907 804.768 33.0907C809.853 33.0907 814.034 33.957 817.311 35.6895C820.625 37.3844 823.262 39.4372 825.22 41.8477C827.179 44.2206 828.667 46.4616 829.683 48.5709H830.813V34.2206H850.983V122.412C850.983 129.832 849.213 135.972 845.672 140.831C842.132 145.689 837.292 149.324 831.152 151.734C825.013 154.145 818.045 155.35 810.248 155.35ZM810.418 103.712C814.749 103.712 818.441 102.657 821.491 100.548C824.542 98.4389 826.859 95.4069 828.441 91.4521C830.022 87.4973 830.813 82.7516 830.813 77.2149C830.813 71.7535 830.022 66.9701 828.441 62.8646C826.896 58.7592 824.599 55.5765 821.548 53.3166C818.535 51.0191 814.825 49.8703 810.418 49.8703C805.861 49.8703 802.056 51.0567 799.006 53.4296C795.955 55.8025 793.657 59.0605 792.113 63.2036C790.569 67.309 789.797 71.9795 789.797 77.2149C789.797 82.5256 790.569 87.1772 792.113 91.1696C793.695 95.1244 796.011 98.2129 799.062 100.435C802.151 102.62 805.936 103.712 810.418 103.712ZM893.733 122.751C888.234 122.751 883.281 121.772 878.874 119.814C874.505 117.817 871.04 114.88 868.479 111C865.955 107.121 864.694 102.337 864.694 96.6498C864.694 91.7534 865.597 87.7045 867.405 84.503C869.213 81.3015 871.68 78.7403 874.807 76.8194C877.933 74.8985 881.454 73.4484 885.371 72.4691C889.326 71.4522 893.413 70.7177 897.631 70.2657C902.716 69.7384 906.84 69.2676 910.004 68.8533C913.168 68.4013 915.466 67.7234 916.897 66.8194C918.366 65.8778 919.1 64.4277 919.1 62.4691V62.1301C919.1 57.874 917.838 54.5784 915.315 52.2432C912.791 49.908 909.157 48.7403 904.411 48.7403C899.402 48.7403 895.428 49.8326 892.49 52.0172C889.59 54.2017 887.631 56.7818 886.614 59.7573L867.518 57.0454C869.025 51.7724 871.511 47.3656 874.976 43.8251C878.441 40.247 882.678 37.5728 887.688 35.8025C892.697 33.9946 898.234 33.0907 904.298 33.0907C908.479 33.0907 912.641 33.5803 916.784 34.5596C920.927 35.5389 924.712 37.1585 928.14 39.4183C931.567 41.6406 934.317 44.6726 936.388 48.5144C938.497 52.3562 939.552 57.1584 939.552 62.9211V121H919.891V109.079H919.213C917.97 111.49 916.219 113.75 913.959 115.859C911.737 117.93 908.931 119.606 905.541 120.887C902.189 122.13 898.253 122.751 893.733 122.751ZM899.044 107.723C903.149 107.723 906.708 106.913 909.722 105.294C912.735 103.637 915.051 101.452 916.671 98.7402C918.328 96.0284 919.157 93.0717 919.157 89.8702V79.6442C918.516 80.1715 917.424 80.6612 915.88 81.1131C914.373 81.5651 912.678 81.9606 910.795 82.2996C908.912 82.6386 907.047 82.9399 905.202 83.2035C903.356 83.4672 901.756 83.6932 900.4 83.8815C897.349 84.2958 894.618 84.9738 892.208 85.9154C889.797 86.857 887.895 88.1753 886.501 89.8702C885.108 91.5274 884.411 93.6743 884.411 96.3109C884.411 100.077 885.786 102.921 888.535 104.842C891.285 106.763 894.788 107.723 899.044 107.723ZM956.935 121V34.2206H976.766V48.6839H977.67C979.251 43.6744 981.963 39.8138 985.805 37.102C989.685 34.3524 994.11 32.9777 999.082 32.9777C1000.21 32.9777 1001.47 33.0342 1002.87 33.1472C1004.3 33.2225 1005.48 33.3543 1006.43 33.5426V52.3562C1005.56 52.0548 1004.19 51.7912 1002.3 51.5652C1000.46 51.3015 998.668 51.1697 996.935 51.1697C993.206 51.1697 989.854 51.9795 986.879 53.5991C983.941 55.181 981.624 57.3844 979.929 60.2092C978.234 63.0341 977.387 66.2921 977.387 69.9832V121H956.935Z" fill="#1E293B"/>
<path d="M737 3.86981C737 2.76524 737.895 1.86981 739 1.86981H755.5C756.605 1.86981 757.5 2.76524 757.5 3.86981V20.8698C757.5 21.9744 756.605 22.8698 755.5 22.8698H739C737.895 22.8698 737 21.9744 737 20.8698V3.86981Z" fill="#FBBF24"/>
<path d="M737.25 35.8699C737.25 34.7653 738.145 33.8699 739.25 33.8699H755.25C756.355 33.8699 757.25 34.7653 757.25 35.8699V118.87C757.25 119.974 756.355 120.87 755.25 120.87H739.25C738.145 120.87 737.25 119.974 737.25 118.87V35.8699Z" fill="#1E293B"/>
<defs>
<clipPath id="clip0_60_402">
<rect y="1.86981" width="94.8454" height="118.557" rx="6.70103" fill="white"/>
</clipPath>
<clipPath id="clip1_60_402">
<rect x="383.505" y="1.85681" width="94.8454" height="118.557" rx="5.15464" fill="white"/>
</clipPath>
</defs>
</svg>
